<svg width="14" height="14" viewBox="0 0 14 14" fill="none" xmlns="http://www.w3.org/2000/svg">
<path d="M3.26666 1.86659C3.14725 1.86659 3.02771 1.91207 2.93671 2.00331L2.00338 2.93664C1.82091 3.11911 1.82091 3.41453 2.00338 3.59653L5.40677 6.99992L2.00338 10.4033C1.82091 10.5858 1.82091 10.8812 2.00338 11.0632L2.93671 11.9965C3.11918 12.179 3.41461 12.179 3.59661 11.9965L7 8.59315L10.4034 11.9965C10.5854 12.179 10.8813 12.179 11.0633 11.9965L11.9966 11.0632C12.1791 10.8807 12.1791 10.5853 11.9966 10.4033L8.59322 6.99992L11.9966 3.59653C12.1791 3.41453 12.1791 3.11864 11.9966 2.93664L11.0633 2.00331C10.8808 1.82084 10.5854 1.82084 10.4034 2.00331L7 5.40669L3.59661 2.00331C3.50538 1.91207 3.38607 1.86659 3.26666 1.86659Z" fill="white"/>
</svg>
